HIERARCHY
ROOT Hips
{
	OFFSET 0.00000 0.00000 0.00000
	CHANNELS 6 Xposition Yposition Zposition Zrotation Yrotation Xrotation 
	JOINT LHipJoint
	{
		OFFSET 0 0 0
		CHANNELS 3 Zrotation Yrotation Xrotation
		JOINT LeftUpLeg
		{
			OFFSET 1.36443 -1.53315 0.80540
			CHANNELS 3 Zrotation Yrotation Xrotation
			JOINT LeftLeg
			{
				OFFSET 2.27494 -6.25036 0.00000
				CHANNELS 3 Zrotation Yrotation Xrotation
				JOINT LeftFoot
				{
					OFFSET 2.17461 -5.97470 0.00000
					CHANNELS 3 Zrotation Yrotation Xrotation
					JOINT LeftToeBase
					{
						OFFSET 0.22144 -0.60841 2.08966
						CHANNELS 3 Zrotation Yrotation Xrotation
						End Site
						{
							OFFSET 0.00000 -0.00000 1.09206
						}
					}
				}
			}
		}
	}
	JOINT RHipJoint
	{
		OFFSET 0 0 0
		CHANNELS 3 Zrotation Yrotation Xrotation
		JOINT RightUpLeg
		{
			OFFSET -1.29957 -1.53315 0.80539
			CHANNELS 3 Zrotation Yrotation Xrotation
			JOINT RightLeg
			{
				OFFSET -2.23917 -6.15209 0.00000
				CHANNELS 3 Zrotation Yrotation Xrotation
				JOINT RightFoot
				{
					OFFSET -2.18029 -5.99030 0.00000
					CHANNELS 3 Zrotation Yrotation Xrotation
					JOINT RightToeBase
					{
						OFFSET -0.22354 -0.61416 1.89975
						CHANNELS 3 Zrotation Yrotation Xrotation
						End Site
						{
							OFFSET -0.00000 -0.00000 1.00221
						}
					}
				}
			}
		}
	}
	JOINT LowerBack
	{
		OFFSET 0 0 0
		CHANNELS 3 Zrotation Yrotation Xrotation
		JOINT Spine
		{
			OFFSET -0.04725 2.10352 -0.01215
			CHANNELS 3 Zrotation Yrotation Xrotation
			JOINT Spine1
			{
				OFFSET 0.04471 2.09612 -0.07192
				CHANNELS 3 Zrotation Yrotation Xrotation
				JOINT Neck
				{
					OFFSET 0 0 0
					CHANNELS 3 Zrotation Yrotation Xrotation
					JOINT Neck1
					{
						OFFSET -0.01586 1.38087 0.11506
						CHANNELS 3 Zrotation Yrotation Xrotation
						JOINT Head
						{
							OFFSET -0.01055 1.38869 -0.12115
							CHANNELS 3 Zrotation Yrotation Xrotation
							End Site
							{
								OFFSET -0.00310 1.39537 -0.05348
							}
						}
					}
				}
				JOINT LeftShoulder
				{
					OFFSET 0 0 0
					CHANNELS 3 Zrotation Yrotation Xrotation
					JOINT LeftArm
					{
						OFFSET 2.71932 0.62535 0.37316
						CHANNELS 3 Zrotation Yrotation Xrotation
						JOINT LeftForeArm
						{
							OFFSET 4.47366 -0.00000 0.00000
							CHANNELS 3 Zrotation Yrotation Xrotation
							JOINT LeftHand
							{
								OFFSET 3.19948 -0.00000 -0.00000
								CHANNELS 3 Zrotation Yrotation Xrotation
								JOINT LeftFingerBase
								{
									OFFSET 0 0 0
									CHANNELS 3 Zrotation Yrotation Xrotation
									JOINT LeftHandIndex1
									{
										OFFSET 0.49267 -0.00000 -0.00000
										CHANNELS 3 Zrotation Yrotation Xrotation
										End Site
										{
											OFFSET 0.39720 -0.00000 -0.00000
										}
									}
								}
								JOINT LThumb
								{
									OFFSET 0 0 0
									CHANNELS 3 Zrotation Yrotation Xrotation
									End Site
									{
										OFFSET 0.40327 -0.00000 0.40327
									}
								}
							}
						}
					}
				}
				JOINT RightShoulder
				{
					OFFSET 0 0 0
					CHANNELS 3 Zrotation Yrotation Xrotation
					JOINT RightArm
					{
						OFFSET -2.97334 0.70851 0.47631
						CHANNELS 3 Zrotation Yrotation Xrotation
						JOINT RightForeArm
						{
							OFFSET -4.32690 -0.00000 -0.00000
							CHANNELS 3 Zrotation Yrotation Xrotation
							JOINT RightHand
							{
								OFFSET -3.18960 -0.00000 0.00000
								CHANNELS 3 Zrotation Yrotation Xrotation
								JOINT RightFingerBase
								{
									OFFSET 0 0 0
									CHANNELS 3 Zrotation Yrotation Xrotation
									JOINT RightHandIndex1
									{
										OFFSET -0.46450 -0.00000 -0.00000
										CHANNELS 3 Zrotation Yrotation Xrotation
										End Site
										{
											OFFSET -0.37449 -0.00000 -0.00000
										}
									}
								}
								JOINT RThumb
								{
									OFFSET 0 0 0
									CHANNELS 3 Zrotation Yrotation Xrotation
									End Site
									{
										OFFSET -0.38021 -0.00000 0.38021
									}
								}
							}
						}
					}
				}
			}
		}
	}
}
MOTION
Frames: 7
Frame Time: .0083333
9.8262 15.3427 7.3085 314.6770 165.6540 119.5180 0.0000 0.0000 0.0000 6.8994 12.2958 10.6767 0.0000 0.0000 0.0000 0.0262 12.2060 -17.7057 0.0719 1.7297 4.7591 0.0000 0.0000 0.0000 -31.2066 -10.1398 -84.1065 -8.6803 -16.5975 54.9778 0.1362 -12.7934 -16.3560 -0.1857 2.7757 -7.6549 6.6533 -1.8140 17.6532 4.9444 -0.5327 -0.7498 1.8134 -0.4757 -10.8212 0.6322 -4.9338 -20.1118 -5.8773 -7.5852 -8.6830 -2.4871 -4.4293 0.2788 0.0000 -0.0000 0.0000 24.5660 16.6184 -28.0898 26.2989 -37.5024 -9.0690 -0.0000 -0.0000 133.6200 17.5838 -2.6159 -0.8287 -7.1250 0.0000 -0.0000 -6.9003 27.2182 3.0004 0.0000 -0.0000 0.0000 -50.2008 30.0183 -106.1773 -9.9110 16.6002 -1.4494 0.0000 0.0000 32.5069 -90.3277 46.3177 -90.4532 7.1250 -0.0000 -0.0000 -156.6800 59.4860 -171.4666
9.9200 15.4523 7.0113 315.2940 163.7970 121.2080 0.0000 0.0000 0.0000 9.1542 13.8900 8.3451 0.0000 -0.0000 -0.0000 0.1197 11.3242 -17.7205 0.0480 1.4138 3.8882 0.0000 0.0000 0.0000 -28.0040 -8.9164 -81.3849 -9.0985 -16.8707 56.4301 0.2143 -12.7859 -15.1418 -0.1825 2.7516 -7.5879 5.3377 -1.7248 18.1184 4.4165 -0.6749 -0.8915 2.0303 -0.4832 -11.2320 0.3564 -4.8814 -20.3722 -5.7563 -7.4021 -8.3292 -2.4099 -4.3177 0.4606 0.0000 -0.0000 0.0000 24.2048 17.6682 -27.8267 25.9094 -37.1191 -8.8329 -0.0000 -0.0000 133.6220 18.4737 -3.0828 -1.0293 -7.1250 0.0000 -0.0000 -6.1991 26.7185 2.7651 0.0000 -0.0000 0.0000 -49.6149 29.5003 -105.2473 -10.1603 16.9900 -1.5215 0.0000 0.0000 31.3109 -91.6114 46.1012 -92.2357 7.1250 -0.0000 -0.0000 -157.2177 58.3436 -172.3071
10.0080 15.5484 6.6986 316.0430 161.7750 122.7720 0.0000 0.0000 0.0000 10.9457 15.6575 5.9082 0.0000 0.0000 0.0000 0.5787 6.4613 -18.1644 0.1863 2.7799 7.6666 0.0000 0.0000 0.0000 -25.8587 -7.4141 -77.0827 -9.0398 -16.8333 56.2277 0.1960 -12.9597 -15.7310 -0.1947 2.8417 -7.8382 3.6083 -1.5257 18.5019 3.8769 -0.8096 -0.8623 2.4595 -0.4596 -11.3924 0.3946 -4.8119 -20.5663 -5.9745 -7.3094 -8.3469 -2.4927 -4.2799 0.4811 0.0000 0.0000 0.0000 23.6600 18.4020 -28.2690 25.4159 -36.6260 -8.5368 -0.0000 -0.0000 134.1610 18.7595 -3.5417 -1.2020 -7.1250 0.0000 -0.0000 -5.9633 26.2321 2.7272 0.0000 0.0000 0.0000 -48.7050 28.6943 -103.0079 -10.5837 17.6474 -1.6475 0.0000 0.0000 28.9523 -92.8578 45.8908 -93.9771 7.1250 -0.0000 -0.0000 -157.7428 57.2173 -173.1082
10.0953 15.6505 6.4314 316.1790 159.1430 125.9490 0.0000 0.0000 0.0000 11.5535 17.4500 0.1999 0.0000 0.0000 0.0000 0.5860 3.4481 -16.1264 0.1217 2.2488 6.1938 0.0000 0.0000 0.0000 -24.5598 -7.0695 -73.0634 -8.4924 -16.4698 54.3176 0.3918 -14.0865 -14.5639 -0.0830 1.8581 -5.1137 1.6959 -1.6595 16.5100 3.4574 -1.4836 -1.5404 3.2067 -0.6717 -10.9528 0.0051 -4.6790 -19.4229 -6.2607 -7.0896 -8.8271 -2.4438 -4.1381 0.1464 0.0000 0.0000 0.0000 22.9269 19.2547 -28.2716 24.9705 -36.1739 -8.2725 -0.0000 -0.0000 134.7220 18.4570 -4.0707 -1.3572 -7.1250 0.0000 -0.0000 -6.1721 25.6839 2.9032 0.0000 0.0000 0.0000 -47.8961 28.4387 -100.4872 -11.0128 18.3079 -1.7799 0.0000 0.0000 26.5226 -93.5842 45.8907 -94.9858 7.1250 -0.0000 -0.0000 -158.1966 56.5678 -173.6057
10.1792 15.7064 6.1553 315.6950 156.2090 126.0360 0.0000 0.0000 0.0000 13.0011 18.0747 -2.2157 0.0000 0.0000 0.0000 0.6182 -0.6328 -14.6510 0.1376 2.3905 6.5861 0.0000 0.0000 0.0000 -23.7574 -5.9059 -65.0168 -7.7111 -15.9026 51.5153 0.4469 -14.5013 -14.4337 -0.0572 1.5433 -4.2450 -0.1362 -2.0467 17.3984 2.9568 -2.4046 -1.4004 3.9736 -1.0061 -11.2120 -0.3129 -4.4708 -18.0805 -6.5492 -6.8470 -9.8644 -2.3921 -3.9808 -0.4042 0.0000 -0.0000 0.0000 22.0375 20.1581 -28.5812 24.4642 -35.6513 -7.9755 -0.0000 -0.0000 134.8020 18.4509 -4.2730 -1.4240 -7.1250 0.0000 -0.0000 -6.1694 25.4721 2.9325 0.0000 -0.0000 0.0000 -47.0566 27.9413 -98.7727 -11.4289 18.9427 -1.9128 0.0000 0.0000 24.9137 -94.1029 46.0472 -95.6902 7.1250 -0.0000 -0.0000 -158.7003 56.1223 -173.9967
10.2744 15.7983 5.9544 316.4130 154.2850 127.5870 0.0000 0.0000 0.0000 14.4412 20.6684 -5.6223 0.0000 -0.0000 -0.0000 0.5370 -4.0465 -13.0564 0.2355 3.1230 8.6213 0.0000 0.0000 0.0000 -22.7126 -3.8954 -58.5523 -6.6945 -15.0691 47.7091 0.6691 -15.7286 -12.8578 -0.1054 2.0937 -5.7645 -1.8461 -1.8273 17.1261 2.1887 -2.5687 -1.4040 4.1271 -1.0192 -11.0073 -0.7146 -4.6438 -17.6837 -6.2986 -7.0024 -10.1698 -2.2230 -4.0221 -0.5542 0.0000 0.0000 0.0000 21.3297 21.0237 -29.0657 24.0233 -35.1889 -7.7200 -0.0000 -0.0000 134.3320 18.6925 -4.5756 -1.5461 -7.1250 0.0000 -0.0000 -5.9779 25.1485 2.8858 0.0000 0.0000 0.0000 -45.3136 26.9565 -96.1729 -11.9328 19.7038 -2.0796 0.0000 0.0000 22.7708 -94.4036 46.0782 -96.1025 7.1250 -0.0000 -0.0000 -158.9174 55.8583 -174.1991
10.3569 15.8690 5.7594 316.5000 152.2030 128.4580 0.0000 0.0000 0.0000 15.8080 22.8918 -9.1692 0.0000 0.0000 0.0000 0.4184 -6.3528 -11.6768 0.4378 4.2459 11.7695 0.0000 0.0000 0.0000 -22.0347 -1.6413 -51.0372 -5.6956 -14.1267 43.7475 0.8139 -16.7419 -12.4130 -0.0573 1.5453 -4.2506 -2.8801 -2.0030 17.0398 1.2068 -3.1405 -1.4864 3.7792 -1.2688 -11.0058 -0.4265 -4.6657 -17.2470 -6.6979 -7.0636 -9.9416 -2.3979 -4.0431 -0.5716 -0.0000 -0.0000 0.0000 20.7034 22.3707 -28.7837 23.7740 -34.9244 -7.5768 -0.0000 -0.0000 133.6240 18.5727 -5.3293 -1.7875 -7.1250 0.0000 -0.0000 -6.0455 24.3619 3.0296 -0.0000 -0.0000 0.0000 -42.9217 26.2650 -92.1757 -12.4957 20.5438 -2.2732 0.0000 0.0000 19.5761 -94.3022 46.0376 -95.9665 7.1250 -0.0000 -0.0000 -158.8091 55.9436 -174.1227
